/* XPM */
static char *_6ee1eed5e2a41c2e0375b05a9d49fbfNOTgL4yGtftN0W1K[] = {
/* columns rows colors chars-per-pixel */
"64 64 20 1 ",
"  c #182118",
". c #202020",
"X c #212921",
"o c #282828",
"O c #2C2C2C",
"+ c #293121",
"@ c #293129",
"# c #313929",
"$ c gray19",
"% c #343434",
"& c #313931",
"* c gray22",
"= c gray25",
"- c #484848",
"; c #4C4C4C",
": c #4A5242",
"> c gray33",
", c gray36",
"< c #646464",
"1 c gray44",
/* pixels */
"XXXXX+@#@XXX@@X@@@@@@X+X@@@#@XXX@@X@@@@@+++@@X+@X++++X+X+@X+XXXX",
"XXX@X+@@@XXXX@@+@#@@@XXX@@@@@XXXX@@+@#@XX@+XX++@@@+++++X+@@XXXXX",
"+@X@XX@X@XXX@@@@##@XXXXX@&@X@XXX@@@@##@@@#@XX++X@@@+++XX@X@X++++",
"+@@@X@@@@@XX@@@X@@@@@XXX@#@@@@XX@@@X@@@@@#@XXXXX@@@+++X++X@+++++",
"@X@@X@XXXXX++.....X@+....XXXXXX++.....XX.....  ..XXX+....@++++++",
"@@@@+                                                    #@+@@@@",
"@@XXX.oO$O$%OOoO$**$**$*%***===****===%*===*===****-=====&#@@@@@",
"+X@@X+*****=*==;-=---=*=*=-==;>-==-;;-=--=-====-==----=--&#@X+++",
"+X@@X&$**=--=-=-;>-->;;-------;>;;->--===*--*-=-=-;>>;--;@@+X+++",
"X@@@X@*=*->;;>>>,,>>,<>,;>>>,>,>,>>;;;;=--;-=;>-;>,,<,;;>@++XX++",
"@@@@X#*--;;-;>,<<<,<11<<>>,<,>,>,>>>,>>>>,;;>>>=>,,<1,>;;X+XX+++",
"@@@@X@*==>>;><,,,<1<11,>><<,<,>>>,>>>,<,<,>;,,;;,,>1<<>;>&@+++++",
"X@@@.+*=-,,>><>><,,<,<<,<11<<<>,>>>,,,<<>;-->,>>>>>,,,>>,&@+++XX",
"XXXX..*-;,>;>,>><,,<,<>><<<,>,,<>>>>>>,>>=-;,<,;,,<>>>><,#@@@@XX",
"XXXX.+==->;;<<,><<<1,,-><,<,>>,>>>>>>>,,>>><<,,>>,>>-;<<>#@@@@X@",
"XXXX..=->>>,<<,,<111,>,,1<1<;,>>>,,,,,<>>><,,<>;;>>;>>,>>#@@@@X@",
"X@@@+.==;>;,,<,<<<<1>>,<<<1>>>,;>,<<,,>,>,,,,<;;>>>;>,,>>&@@XX@X",
"XX#@@.==;>,,>>,<<,1<><<<>11,;,<><1<>,<,<<<<,,,>><>>>><>>,&@XXXXX",
"X@@@X.=-->->><<<<<1<,<1,,<<>>1,,<<,,,,<<1<,>,>><<>>>,,>>,+XXXXXX",
"X@@@..*;->>>,<,<,,<,->,,,,,,<<<<>,,,,,,<,<>>>;><,>>;>,,>,XXXXXXX",
"XXXX..=-=>,,,,>>,<,;>,,><,>,<<,,>,,><,,<<<,>>>>,>>>>>><<<@XXXXXX",
"XXXX..*=-;,,>,>;>,<>>>;>,>>>,<,;>>,<<<,<<<,>>->>;>>>>-><<&@X@@XX",
"@@XX..%==>>>>>>,><<,>>-;,;;,1<;>><<<1<<<<>,>>;>,--;>>-;>,&@@##@@",
"@@@@..$-=><>>,,>,<<,,>>>,;->,<>;,<<,<,<<>>>>>>>--->>>;;>,&#@@@@@",
"@@@@++;>>,<>>,>;>,>,>,>,;*%=->>>>;>,>>>>->;--;-*=;>;;---=&#X@@@@",
"@X@@++@X##XXX&&&#@@#&X&&&&&&#&&#&&&&&&#&&&&@X+&&###&&X@@&#@@@@@@",
"@XXX@@@XX@XXX@@@@@@#XXX@@##@@@#&@@@@@@@##@@XXX@@@@@@@++@@@@@@@@@",
"@@X@@@@+@XXX@@X@@@@@XXX@@@@@@XX@@@X@@@@X@@XXXXX@@@@++X++@@@@#@XX",
"X@X@@#@@@XXX@@@@##@XXXXX#&@@@XX+@@@@#@@@@#@XXXXX@@@++XXX@#@@@XXX",
"@@@XX@@@@@XX@@@X@@@@@XXX@#@@@@XX@@@X@@@@@#@XXXXX@@@+++X+X@@X@@XX",
"@@@XXX@@@@X@@@XXX@@#@XXX@@@@@@X@@@XXX@@@@@XXXXX@XXXX++++XX@@@@@@",
"@@@@XX@@@@X@@@XXX@@@@XXX@@@@@@X@@@XXX@@@@@XXXXXX@@XX++++XX@@@@@@",
"@@@@X@@@XXX@@@XXX@@@@XXX@X@@XXX@@@@X@@@@@@XXXXXXXXXX@@X+X@@@+X@@",
"XXXX@@XXXXX@@XXXXXX@@X+++XXXXXX@@@@@@XX@@@XX@@X@XXX@@@@X@@XXXXXX",
"XXXX@XXXXX@XXXX+++++@@+++XX+XXX@@@@@@X@@@XXX@@#@XXX@@@@@@@XXX@@@",
"XXXXXXXXXXX@@XX+++++@@+++XX+XXX@@@@@@X@@@XXX@@@@XXX@@@@@@@X@@@@@",
"@X++. ..  ..XXX+....++..  ......XXXXXX++.....X@+....XXXXX&@@@@@@",
"@XXX.                 .. .     .+ ..++++.........+.+@#@&+##@@@@@",
"XXXX .oO$O$%OOoO$**$**$*%***===****===%*===*===****-=====&#@&#@@",
"@+++  *****=*==;-=---=*=*=-==;>-==-;;-=--=-====-==----=--&@@#@@@",
"X+++..$**=--=-=-;>-->;;-------;>;;->--===*--*-=-=-;>>;--;&@@XXXX",
"X+++..*=*->;;>>>,,>>,<>,;>>>,>,>,>>;;;;=--;-=;>-;>,,<,;;>&XXXXXX",
"XX@@+ *--;;-;>,<<<,<11<<>>,<,>,>,>>>,>>>>,;;>>>=>,,<1,>;;XXXXXXX",
"@@@@+ *==>>;><,,,<1<11,>><<,<,>>>,>>>,<,<,>;,,;;,,>1<<>;>&XXX@@@",
"@@++. *=-,,>><>><,,<,<<,<11<<<>,>>>,,,<<>;-->,>>>>>,,,>>,:#@X@#@",
"@X++. *-;,>;>,>><,,<,<>><<<,>,,<>>>>>>,>>=-;,<,;,,<>>>><,@@@@@@@",
"@X++. ==->;;<<,><<<1,,-><,<,>>,>>>>>>>,,>>><<,,>>,>>-;<<>@@@#@@@",
"XX++. =->>>,<<,,<111,>,,1<1<;,>>>,,,,,<>>><,,<>;;>>;>>,>>#@@#@XX",
"XX+++ ==;>;,,<,<<<<1>>,<<<1>>>,;>,<<,,>,>,,,,<;;>>>;>,,>>&@@@XXX",
"XXXXX ==;>,,>>,<<,1<><<<>11,;,<><1<>,<,<<<<,,,>><>>>><>>,&@X@@XX",
"@XXXX =-->->><<<<<1<,<1,,<<>>1,,<<,,,,<<1<,>,>><<>>>,,>>,&@@@@@@",
"@@X@X *;->>>,<,<,,<,->,,,,,,<<<<>,,,,,,<,<>>>;><,>>;>,,>,XX@@@@@",
"@@X@. =-=>,,,,>>,<,;>,,><,>,<<,,>,,><,,<<<,>>>>,>>>>>><<<XXXXX@@",
"XX@X. *=-;,,>,>;>,<>>>;>,>>>,<,;>>,<<<,<<<,>>->>;>>>>-><<XXXXXXX",
"XXXX  %==>>>>>>,><<,>>-;,;;,1<;>><<<1<<<<>,>>;>,--;>>-;>,#@XX@@@",
"XXXX  $-=><>>,,>,<<,,>>>,;->,<>;,<<,<,<<>>>>>>>--->>>;;>,#X@@@@@",
"@XXX. ;>>,<>>,>;>,>,>,>,;*%=->>>>;>,>>>>->;--;-*=;>;;---=XX+@@@@",
"@XXX++@X##XXX&&&#@@#&X&&&&&&#&&#&&&&&&#&&&&@X+&&###&&X@@&@XX#@@@",
"@@X@X@XXX@XXX@@@@@@#XXX@@##@@@#&@@@@@@@##@@XXX@@@@@@@++@##@@&#@@",
"@@@@X+X+@@XXX+X@#@@@XXX@#@@@@XX@@@X@@@@@#@XXXXX@@@+++X++@#@X@@@@",
"XX@@X+X@@@+XX+@##@@@XXX@&@X@XXX@@@@##@@@#@XX++X@@@+++XX@@#@XXXXX",
"XX@XXX++++XXXX+@@+++XXX@@@@@XXXX@@+@#@XX@+XX++@@@+++++X++@+XXXXX",
"X@@XX@+++XXXX@@@@X++XXX@@@@@XXX@@X@@@@@+++@XX+@X+X+++XX++++@XXXX",
"@@@XX@++@X@XX@X@@XX+XXX@@@@++X+@@@X@@@@++@@@++@X@XX++XX+X+@@@@@@"
};
