/* XPM */
static char *_9d95a222afc493a9e04900c5b950bd8vBuMqFGgj7urKMh2[] = {
/* columns rows colors chars-per-pixel */
"64 64 4 1 ",
"  c #181818",
". c gray11",
"X c #202020",
"o c #2E2B22",
/* pixels */
"oooo   oooooooo  XXoooXX    ooooooX....          oooooooX   oo.o",
"ooooXX Xooooooo  XXoooXXXX.  XoooXX..XXXooooooooX oo .....o....o",
"oooXXX oooooooo  XooooooXXXX  XXX.   Xooooooooooo    ooooooooo.o",
"oooX.  oooooooX. XooooooooXXX  ..  .XooooooooooooX  XXoooooooo.o",
"ooXX  XoooooooX. XooooooooXXX.      XXoooooooooooX  .XXooooooo.o",
"XXX  .XoooooooX. XoooooooooXX.  XX.  XXXoooooooooX.    XXoooXX.o",
"       XXoooooX  XXoooooooXX   XoXXX.  XXooooooooX        XXXX  ",
"        XXXooXX  .   XXXXXXX XXoooooX.  XXXoooooo  .XooXXX     .",
"oXXX...  .  XX    .X.    XX...XooooooX.  XXXXXXXX XXoooooXX.  ..",
"oXoXXXXX         .XXXX...    .XoooooooX.  .XXXXXX XoooooooXX. XX",
"oooooXXX   XXX. .XoooXXX...  .XoooooooX.  ..X...  XooooooooX. XX",
"oooooooo  XXXXX .XoooooXXXX. .XoooooooXX. ..X.     XooooooX.  XX",
"oooooooo  XXoXX XooooooooXXX. XooooooooX.  ..  ..X XXoooooX. XoX",
"oooooooo  XXXXX XooooooooooXX XXoooooooX.     .XXXX XXXXXXX  XoX",
"oooooooo  XXXX. XXoooooooooXX  XooooooXX.    XXXooo       . .XoX",
"oooooooX        .XooooooooooX. XooooooX.   XXooooooooXXXX   XXoX",
"ooooooXX   ..   .XoooooooooXX.  oooooXX.  .XoooooooooooXX.  XXoX",
"ooooooX.    .    XXooooooooX..  XXXXXX     XXoooooooooooXX. XXoX",
"oXXoXXX.   ...   .XXXXXoooXX.   ....  ..    XXooooooooooXX.  XXX",
"XXXXXX.    .X..      XXXXX..         ..XXX    XXXXooooooXX.   .X",
"           .XX.        ...    ...    .XXooXX       XXXXXXX.   ..",
"XX.  XXXX  .XXX..  .       ..XXXXX.   XXooXX.     .   XXX.  X   ",
"oXXXXXooXX  XXXXXXXX.    .XXXXXooXXX   XXXXX.   XXXX.  XX. XXooo",
"oooooooooo  XXXXXXXXX..  XXXXXoooooXX   XX.X  XoooooXX.  . Xoooo",
"ooooooooooX .XooooooXX.  XXXXXooooooXX   .   ooooooooX..   Xoooo",
"ooooooooooX  XXooooooXX  .XXXooooooooXX    XooooooooooXX  .XXooo",
"oooooooooooX .XXoooooXX  .XXooooooooooX.  .XoooooooooooXX. XXooo",
"oooooooooooX  .XXXXXXX.  .XoooooooooooX.  .XooooooooooooX.  Xooo",
"oooooooooooX   .         .XXooooooooooX.   XXoooooooooooX.. Xooo",
"oooooooooooX.     ....... .XXXoooooooXX.   .XoooooooooooX.  XXoo",
"oooooooooooXX   .XXXXXXXX    XXoooooooX.   .XXooooooooooX.  .XXX",
"XooooooooooX.   .XooooooXX..   XXooooXX  .     oooooooooX.      ",
"XXXoooooooXX.     oooooooXXX.. .XooooXX .XXXXX  XXooooooX  XXX  ",
"  XoooooooX...XXX  XooooooXXX.   XXoXX .XoooooXX XXXXXX   XooooX",
"   XXoooXXX.XXoXXX  XXooooooXXX   XXX  .XooooooX   ...  Xooooooo",
"    .XXX ..XXoooXXX  XXXXoooooXX       XXooooooX       .Xooooooo",
"XX       .XXoooooXXX  XXXXooooXX  XXX  XXoooooX  .XX.   Xooooooo",
"oX.    ..XXoooooooXXX .XXXXoooXX  XXXX  XXXoooX .XXXXX. Xooooooo",
"oXX. .XXXXooooooooXXX. ..XXXXXX.  XoXXX  .XXX   .XoooXX Xooooooo",
"oXX. XXXoooooooooXXXX.  ...X....  XXoXXX      X.XXoooXX Xooooooo",
"ooX. XooooooooooooXXX.     ..     .XXoXXX.  .XXXXXoooX. Xooooooo",
"ooX .XoooooooooooooXX. XXX         XXoooXX. XXoooooooX. .Xoooooo",
"oX. .XXXooooooooooooX. XoXXXXXXXX  .XooooX. XXooooooo      Xoooo",
"XX   .XXXXXoooooooooX. XooooooooXX  XXooXX. XXooooooo ....  Xooo",
"X       ..XXXooooooXX  XooooooooooX  XXXXX. XXooooooX ..XXX  .. ",
" XXXXXX.    XXXoooXX. .XooooooooooooX  XXX.  XXooooXX .XXXX.    ",
"XXoooooXXXX   ..XXX.  XoooooooooooooXX  ..   .XXXXXXX .XXXX.    ",
"XXooooooooXX.    .   .XooooooooooooooX.        ...XX   .XXX.    ",
"XXooooooooXX.        .XoooooooooooooooX.             XX       . ",
"XXooooooooXX.     .. .XoooooooooooooooXX.   ..XXXXXXoXXXXX.     ",
"XoooooooooXX.     XX. .XooooooooooooooXX.  .XXXoooooooooXXX.   X",
"XoooooooXXX       XXX. .XoooooooooooooXX. .XXXooooooooooXXX. .XX",
"XoooooXXXX  ...  XooXX. XooooooooooXXXX.  .XXooooooooooooXX XXXX",
"XXoooXX.   XXXX. XoooXX  XXoooooooXXX..  .XXoooooooooooooXX .XXX",
"XXXoXX   XXoooXX XXXXXX.  .XXXXXXX..    .XXooooooooooooXXX   .XX",
"oooo   .XoooooXX ..XXX.          .      .XooooooooooooXX   X  XX",
"      XXooooooXX          ......   XXX  ..XXooooooooXXX  .XXX   ",
"     .XooooooooX ..XX    .XXXXXXXXXXXXX  ..XXXXoooooXX. .Xoooooo",
"oo.  XoooooooooX XXXXX  .XXXXXXXXXXXooooX   XXXXXXXXX.  Xooooooo",
"ooX. XoooooooooX XXXXX  XXXXXXXXXXXXoooooXX   .        XXooooooo",
"ooXX Xooooooooo  XoXXX. XXooooooXXXXoooooooX.   XXXXXX  Xooooooo",
"oooX Xooooooooo  XXXXX. XXooXXXooooooooooooXX  XoooooXXX  oooooo",
"oooX Xooooooooo  ooooX  XXooXXXooooooooooooXX ooooooooXX. Xooooo",
"oooX Xooooooooo  ooooX  XoooooooooooooooooooX ooooooooooo oooooo"
};
