/* XPM */
static char *_e85539aa4614f50b13e84b3bba73ce3dbRUg3bUDskmlMe4[] = {
/* columns rows colors chars-per-pixel */
"64 64 10 1 ",
"  c None",
". c black",
"X c #010000",
"o c #090909",
"O c gray5",
"+ c #131313",
"@ c #92A3B2",
"# c #BFCAD7",
"$ c #F4F4EB",
"% c white",
/* pixels */
"                                                                ",
"                                                                ",
"                                                                ",
"                                                                ",
"                                                                ",
"                                                                ",
"                                                                ",
"                                                                ",
"                                                                ",
"                                                                ",
"                                                                ",
"                                                                ",
"                                                                ",
"                                                                ",
"                                                                ",
"                                                                ",
"                                                                ",
"                                                                ",
"                               ....                             ",
"                   ...        ......                            ",
"                  .@@..      ...$%%.                            ",
"                 .@@@#..     ....$..                            ",
"                .@@@#....   ...$$$$.                            ",
"               .@@@#.   ..  ...$$$$.                            ",
"               .@@#.     .. ....$$$.                            ",
"              .@@#.       ..........                            ",
"              .@#.         ....OOOOO.                           ",
"              .@#.        ..ooOOOOOO+.                          ",
"             .@#.        .ooOOOOOOOOO++                         ",
"             .@#.        .OOOOOOOOOOOOO.                        ",
"             .#.         oOOOOOOOOOOOOO+.                       ",
"             .#.        .oOOOOOOOOOOOOOO.                       ",
"             ..         .OOOOOOOOOOOOOOOO.                      ",
"              .         oOOOOOOOOOOOO.oOO.                      ",
"                       .oOOOOOOOOOOOO.oOO.                      ",
"                       .OOOOOOOOOOOOO.ooO.                      ",
"                       .OOOOOOOOOOOOO.ooO.                      ",
"                       .OOOOOOOOOOOOO.....                      ",
"                      .OOOOOOOOOOOOOO. ...                      ",
"                      .OOO.OOOOOOOOOO.  ..                      ",
"                      .OOO.oOOOOOOOOO.   ..                     ",
"                      .OOO.oOOOOOOOOO.    ..                    ",
"                      .OOO.oOOOOOOOOO.     ..                   ",
"                      .OOO.oOOOOOOOOO.      ..                  ",
"                       ....oOOOOOOOOOO.                         ",
"                         .oOOOOOOOOOO+.                         ",
"                         .oOOOOOOOOOO+.                         ",
"                         .OOOOOOOOOOOO.                         ",
"                         .OOOOOOOOOOOO.                         ",
"                         .OOOOOOOOOOOO+.                        ",
"                         .OOOOOOOOOOOO+.                        ",
"                        .oOOOOOOOOOOOO+.                        ",
"                        .oOOOOOOOOOOOOO.                        ",
"                        .OOOOOOOOOOOOOO.                        ",
"                        .OOOOOOOOOOOOOO.                        ",
"                        .OOOOOOOOOOOOOO.                        ",
"                        .OOOOOOOOOOOOOO.                        ",
"                        .OOOOOOOOOOOOO.                         ",
"                        .OOOOOOOOOOOOO.                         ",
"                        .OOOOOOOOOOOOO.                         ",
"                        .OOOOOOOOOOO..                          ",
"                         .OOOOOOOOO.                            ",
"                          .........                             ",
"                                                                "
};
