/* XPM */
static char *f91afc25c9954d1da4734417f69593a7WzcUifTkniKktu89[] = {
/* columns rows colors chars-per-pixel */
"64 64 24 1 ",
"  c black",
". c gray11",
"X c #202020",
"o c #282828",
"O c #2C2C2C",
"+ c gray19",
"@ c #343434",
"# c gray22",
"$ c gray25",
"% c #484848",
"& c #4C4C4C",
"* c gray33",
"= c gray36",
"- c #646464",
"; c gray44",
": c #7C7C7C",
"> c gray55",
", c #989898",
"< c gray66",
"1 c #B4B4B4",
"2 c #C0C0C0",
"3 c #D0D0D0",
"4 c gainsboro",
"5 c #ECECEC",
/* pixels */
";:;=&%oo-;%%$$%$-$ ><11<11,,22<-&**+ o++#+#@#@++++#######@.#&*=;",
":::=&$. &=%#$$&&#. ;:><<<<<<<<<,*%&%. ##$+$@#@++@#######o  X#$#*",
"%:-$X....++%#+O....;:;>>:>>>>>>>:=&&O +*-**#@@++%*$###$O..X+####",
"2<<2,:&$XX...Xo+X@$=--:;=>;;-;-::-&%$..==&%$@@+$%$$$$#o.XO#=<223",
"4443122;$###%*;-**2332$#.o%**=;:;;-$%+.*=%%$$##$#$%$+o$-:<245555",
"<,>>,<3;*=*****;>2<,23,X....X@%***&&&$o+-*=&#++++-><134555444432",
"*=*-,,1;*****&*=;:;:;:2:X@%&&%&**>,11<>;;--%OX...3555554321>:;>;",
"--=&:11;*&**%*---:::;-:<o$*--==-=-:>>,:,<<11121*X3431,>:===:>>:;",
"-=*=:<1-****&*=*=-;---;;+$=--*==---&;*-:=::,<342X>=**-*-:>::-;-=",
"---;=--**%&&&=---=-==-*-#$*==**-,:=*=;,>;><12242o-:=*;=-:::-=-**",
"=-===;=&%%**&*--;;--=-;;$*:--;--;:-**:1>>>233<11&>>***-*-;--=***",
"*===*-;-&&=&*=**=&***=-;=<11,1,-;---;><1,::,<<,<+;*=**==;;;;--*%",
"**=;;-;-=***&;=*%*--;--;22,:<11222<:<<,>>;:;-==;@#=****=*;--%%%%",
"*****&=-=*&****$%%&*-==-:,442,13332,,<:;--:=&=&*OX****=-&--*%&&&",
"*******=-==&*&%$%%%%%**-$<<32:131131>,::>>*:;;>:& *--==-&%%%$***",
"******==*--&$**&%%%***-*O;<2322222<1,>;*;;=-;==-; %=*&***%%%****",
"=====*=-=-;=%==&&$%%&%*%.;1234433222>>=&=*=*---:* $&&****$$%=*==",
"===-=------=**-**&*&&%%*.*,23343442,;:-&-;>::,-;o O%$%&%#OO##$%&",
"==-===-=====-==****%%$$X $;><22231<,,=;;-;>>>:-$o .Ooo...oOO@##%",
"+O$$#$&$####$#@oO+OXX....O$&:122121<,:>>>>%$$$$$@ .XXX.XO++O+#$$",
"<<<<<<<<,<<1222222221<<<>#$&:>11<1221<<<<,=%%%%$#  ..XX++++++#$-",
">445322124541,<1<,,;-&:12:X+$$;<,<<,>;;;-%$$$$$$X .OOO++@++@$%%-",
":21>::-;;;>:=-::;&%*%#%-:<. .Xo$&*-==**&%&%@OXXX  .o#%%##$$%%%%-",
";;;-;--;--=;***--%%%%*$%-&O.##$@O+@@@+OooXoo$$#+X .@$$$$###$%$%=",
";----=:>:---=*==*&%$%%$$&%+@--;*$%%&%%$$$#@$*;:>+  ##$%%$#$$$$$=",
";---::;;:---==-=*=%**%$%%%@%;;;;>2433423<:<2443<#..#$%%%###$$$%-",
"-==-::*=;:*;***&%%%&=&%%%%#O:;;:-;133,>,34442243#X.#$$$$###$$$&-",
"---;--*=-=*-==&*%$%&*&%%%%+X-;;>:&=-:<<:;:>342,21X.@$$$$###$$$=-",
"==-;;-=-=-*::;*&*%%%*%%%%*##$#%&*%***:<;**==1<>>&..+#$$$#$$$$%-=",
"<--;;-====--:=*-,=&*%$%$$&:-#$#@+++O+$*:=&&&*;#oXX.@#$$$$$$$$-,,",
"1-=-;-*====;;-;:>;=*;=$$$=>;<33,>:-%%%%=***%$%%#@o +####$$#$-,<<",
",:----==-*=;;;-=;:**;=%$%=@=<<,22<1<;--:---*%&&$$O .#$$$$#%,1<<<",
"===--;;--*-;;=%$*:>,:;%$%&+.=-*-**=;:;;>,;;*%%$$$$. o$$$%;<1121>",
";=*=-***;&-;--=%=*--=-%$%%$.=*$&&&***;=-><;-*&%%%$X X+&<232<11<,",
"=---=*&&*&&=-;-&=%%&**%%%%%O;;=*%&*--;---;-;-&%&&&+  XO;<<2<1::*",
"&==--;-=&*=;-;:*###$$%%$%**-::::--;>::;==**==****%+..  ..@*;%$%$",
"-&&*=-==***--;:-$$$&$*&$%*$o-:::>>,>,,>>>-***=**%$OooXX..X$%$O.+",
"-%*==;=-=*$=-;>:%$#&&&&$&;&*;**;>>>>>,>,>:******&$&*;:>###++Ooo*",
"--*=*==---%-;:>>-$$%*&&%-;#@**--:>>>,>>,,:*****&$,3232,*$%$###@#",
"%%$$O#--=&*-;--*&$%**-%%-o  #=--::>>,,,,::=****#;322<,<:&%$#$##@",
"o.X...oXX.oXoXXoOXoXoo.......*-;::=*;,:;::=&&*% ->><>>::-%%%$##@",
"#O+oX....XXo%%%$$#++++OO@$-#XX=>>:*&>>:::-&$#@@.#:>,:>>::*$$####",
"#+*,>-;:;*-*---==*--**&>123=%$#=&$OO%XOoo ..$=-X#-:,::::::$%$$##",
"#&<::::>,<,<,>,<<,>,<<>:>>:***&%%%%%$$%%@X$*:-&O#;:>:-=:;>*%%$##",
"*1>:::;>,,<,,<,<<<<,<1,>>:;****%&%%&&%%%;%:;$@O+X%;>;--;;;;%%$$$",
">><,,>,,::>,,,,,>,<,,>,,,<,&&&%%%%=:;:=&=-X.O#$-X.o%===**--$$$##",
",1<21<,>,>>>,,,,,,><<,<<<<<=**-*-;>>>:;::,@.#$:4&OX..X#&$&=$#$$-",
":<11<2>:>>:,<,>:::>,,,<<,,<<>:::>;:>:;:--;:o#-243,;&#OoXoooXXX@-",
",,,,<<,;&;-;;>>>>:;:<>>,<,>>>,>:::-:;:;;>,>@&22,,2>:>,:;;>+..o-:",
">,,,,<1:>>>>:>>,>,>--;;>:::,,:;:>,,>;:>>:,>$<2;**-;;-;-*&;%..#:>",
"><,,:>231,::>>,,,>,>;*;-;:,,>>>,,,,,:;,:::;=1=&&&-,=:;::=-&XX=,>",
",11,>:;<31,>>>>,,,>,,:-=-;;;:>>>:;;;>,,<>%X1:&&&%%,,>><:-;&.X-<<",
"<<1<,>::,:,<,,,>,,,,,>:;>::::>>;;=-->:::$ #1&*%$%%*:,::;;=# X->,",
">>>,<<<<<*:><1,<<,<,<,,::>;;>>::-;=*=-=$X.%;*-%$$&%%=&$%=%X o->:",
"&;:>><<,:=>::>,>:>>>:<11<>:;;::-;;-=;-&%&$o$&*&**%&%%$$#=#  o%%#",
",:;>>-;*#%*--**#$$%==;;;;=$$*%*%#&$$$#O*;-%$%$#+ooOO+#$%+.  O&=,",
";>-OoXOoo$%#=>::,,:;:>&XooXXoXXXooX...XX&--;;=;;=#+X...O..  @--;",
"-OXXXo+@*:;,,122<121>;>=+@O@@XXO+@#######$&$%%$%###++OoXooX.$;;>",
"$OXO#@o#%%$**=*&%$;;;;;;;--;$  .@##########@+OOOO++O+@@@++++$%=#",
"*%$&*$oO&%$$$%&**$:;:;;;-;-*.oOXX######@#@++++OO+O++#+@+++++@+%=",
"-*%%*$oX&%%%=%;:&o..+oXXO#%X.O#*=o+@#####@#@+O+++OOO@@O+@@++#$*-",
":;;%*%oo=*;><,<,-+ O=*&#OoXO@@$*-+ X#######@+OOOO+OO@@+@##@+#%*;",
";:;&*%o*<,1,,<,<<$ =,><;**$$**&$#o. o####@+++OOOO++O+++##@++#%=;",
"::;*&%o%<<<,1,:->% :2222<;&*>=***%#. #@##+@O+O++++@+@@##@++#$=-:"
};
