/* XPM */
static char *result[] = {
/* columns rows colors chars-per-pixel */
"64 64 233 2 ",
"   c #000001",
".  c #000002",
"X  c #020409",
"o  c #04080F",
"O  c #080E1A",
"+  c #121318",
"@  c #081322",
"#  c #0B1A2C",
"$  c #171F2E",
"%  c #0B1E32",
"&  c #171F36",
"*  c #202125",
"=  c #22242A",
"-  c #20253B",
";  c #272E3E",
":  c #142443",
">  c #1A2847",
",  c #102F48",
"<  c #173151",
"1  c #15375A",
"2  c #1D3A58",
"3  c #242744",
"4  c #2E3143",
"5  c #2A3649",
"6  c #32384C",
"7  c #253650",
"8  c #2C3C55",
"9  c #363E50",
"0  c #183C60",
"q  c #3A4359",
"w  c #174660",
"e  c #194266",
"r  c #1D4D6A",
"t  c #194A6F",
"y  c #1A5578",
"u  c #3D4A64",
"i  c #205C7C",
"p  c #3D5E7E",
"a  c #454C61",
"s  c #454E66",
"d  c #485367",
"f  c #4D556D",
"g  c #545C70",
"h  c #565E74",
"j  c #505D78",
"k  c #57627D",
"l  c #58637B",
"z  c #5D657A",
"x  c #1D5F88",
"c  c #1F7292",
"v  c #206A88",
"b  c #287F9C",
"n  c #277DA4",
"m  c #5E6C85",
"M  c #63738F",
"N  c #6A738A",
"B  c #727B88",
"V  c #6E7D98",
"C  c #717F96",
"Z  c #1C94AF",
"A  c #2086A8",
"S  c #3191AC",
"D  c #2597B4",
"F  c #399EB6",
"G  c #3399BB",
"H  c #2EA1BF",
"J  c #798195",
"K  c #79869C",
"L  c #7F889B",
"P  c #748BA5",
"I  c #7E98B2",
"U  c #32A9C1",
"Y  c #39AFC8",
"T  c #38B3D2",
"R  c #5DA8C3",
"E  c #45BBCB",
"W  c #40BCD4",
"Q  c #5DC0CE",
"!  c #40C4D7",
"~  c #45CAE0",
"^  c #4BD4E1",
"/  c #52DBEA",
"(  c #82858B",
")  c #8C8E92",
"_  c #808D9F",
"`  c #92969A",
"'  c #808EA5",
"]  c #8290A5",
"[  c #8C94A1",
"{  c #8994A7",
"}  c #8391AA",
"|  c #8694AA",
" . c #8493AD",
".. c #8C99A8",
"X. c #8998AE",
"o. c #8B98AF",
"O. c #8B99AF",
"+. c #8C98AD",
"@. c #969EAB",
"#. c #8E9BB0",
"$. c #8E9CB2",
"%. c #8D9CB4",
"&. c #939DB1",
"*. c #909FB7",
"=. c #96A0AF",
"-. c #9EA5AF",
";. c #92A0B7",
":. c #94A0B5",
">. c #99A2B4",
",. c #9EA6B5",
"<. c #98A4B9",
"1. c #98A7BE",
"2. c #9EAABE",
"3. c #A5ADBB",
"4. c #A2ACBF",
"5. c #ABB4BF",
"6. c #9EABC0",
"7. c #A0ACC1",
"8. c #A1ADC3",
"9. c #A5B0C4",
"0. c #A4B1C5",
"q. c #A7B1C4",
"w. c #ACB5C7",
"e. c #A8B4C8",
"r. c #ACB7CB",
"t. c #B3B8C4",
"y. c #B1BBC9",
"u. c #B4BDCB",
"i. c #B1BBCF",
"p. c #B3BECE",
"a. c #B4BFCF",
"s. c #B8BECB",
"d. c #BBC2CE",
"f. c #A9CDDD",
"g. c #B6C0D2",
"h. c #B8C2D5",
"j. c #BBC4D6",
"k. c #BFCAD2",
"l. c #BEC6D9",
"z. c #C0C6D1",
"x. c #C4CBD2",
"c. c #C8CDD6",
"v. c #C1C9D9",
"b. c #C1C9DB",
"n. c #C3CBDA",
"m. c #C7CCD8",
"M. c #C7CDDA",
"N. c #C4CCDD",
"B. c #C6CEDD",
"V. c #C9D2DA",
"C. c #CCD2DB",
"Z. c #C8D0DF",
"A. c #CAD1DE",
"S. c #CED7DF",
"D. c #D1D6DE",
"F. c #C6CEE0",
"G. c #CAD2E1",
"H. c #CDD3E0",
"J. c #CED4E2",
"K. c #CED5E3",
"L. c #D0D6E2",
"P. c #D0D7E4",
"I. c #D2D9E2",
"U. c #D7DCE2",
"Y. c #D2D8E4",
"T. c #D4DAE4",
"R. c #D6DAE5",
"E. c #D4DAE6",
"W. c #D6DBE6",
"Q. c #D7DBE6",
"!. c #D5DCE5",
"~. c #D6DEE5",
"^. c #D6DEE7",
"/. c #DDDFE3",
"(. c #D8DFE7",
"). c #DADFE6",
"_. c #D6DCE8",
"`. c #D7DDE9",
"'. c #D9DDE8",
"]. c #D9DEE8",
"[. c #DBDFE9",
"{. c #CCE7EB",
"}. c #DBE0E7",
"|. c #D9E3EA",
" X c #DDE2E8",
".X c #DEE2E9",
"XX c #DCE0EB",
"oX c #DDE2EB",
"OX c #DEE4EA",
"+X c #DFE6EB",
"@X c #E0E5EB",
"#X c #E1E7EB",
"$X c #E2E6EC",
"%X c #E0E4EE",
"&X c #E2E6EE",
"*X c #E3E8EE",
"=X c #E5E8ED",
"-X c #E4E9EF",
";X c #E8EAEF",
":X c #E5EAF0",
">X c #E6EBF0",
",X c #E7ECF1",
"<X c #E9EEF1",
"1X c #E8EDF2",
"2X c #E9EDF2",
"3X c #E9EDF3",
"4X c #EAEFF2",
"5X c #EAEEF3",
"6X c #EAEFF3",
"7X c #EEEFF3",
"8X c #EEF0F1",
"9X c #ECF1F3",
"0X c #ECF0F5",
"qX c #EFF1F5",
"wX c #EDF2F5",
"eX c #EEF2F4",
"rX c #ECF1F7",
"tX c #EFF2F7",
"yX c #EEF3F8",
"uX c #F0F1F4",
"iX c #F2F3F5",
"pX c #F0F1F6",
"aX c #F0F2F7",
"sX c #F1F4F7",
"dX c #F4F5F6",
"fX c #F2F3F8",
"gX c #F3F6FA",
"hX c #F4F5F8",
"jX c #F5F6F8",
"kX c #F6F7F9",
"lX c #F7F9FB",
"zX c #F8FAFC",
"xX c None",
/* pixels */
"xXxXxXxXxXxXxXxXxXxXxXxXxXxXxXxXxXxXxXxXxXxXxXxXxXxXxXxXxXxXxXxXxXxXxXxXxXxXxXxXxXxXxXxXxXxXxXxXxXxXxXxXxXxXxXxXxXxXxXxXxXxXxXxX",
"xXxXxXxXxXxXxXxXxXxXxXxXxXxXxXxXxXxXxXxXxXxXxX+X>X4X4X9X8X<X<XeX5X,X1XeX<X6X9X4X>X+XxXxXxXxXxXxXxXxXxXxXxXxXxXxXxXxXxXxXxXxXxXxX",
"xXxXxXxXxXxXxXxXxXxXxXxXxXxXxXxXxX+X4XeXjXlXkXkXkXhXsXsXgXgXgXdXdXsXsXdXgXgXgXgXgXgXsXsXyX1X#X~.xXxXxXxXxXxXxXxXxXxXxXxXxXxXxXxX",
"xXxXxXxXxXxXxXxXxXxXxXxXxXxX~.<XsXjXdXuXqX5X3X,X-X*X&X&X$X$X*X*X*X$X*X-X:X,X,X3X0X0XrXrXrXrXrXwX0X-XV.xXxXxXxXxXxXxXxXxXxXxXxXxX",
"xXxXxXxXxXxXxXxXxXxXxXxXV.,X5X,X:X$X@XoXOX&X,X2X7XuXdXhXlXlXlXlXlXlXlXlXkXkXhXaXwX0X3X:X:X-X*X@X$X$X-X-XV.xXxXxXxXxXxXxXxXxXxXxX",
"xXxXxXxXxXxXxXxXxXxXu.(.%XXX^.(.$X;X7XiXlXlXzXzXzXlXlXlXlXlXzXzXzXlXlXlXlXlXlXlXlXzXlXkXiX0X;X@X).).U.).$XD.6.xXxXxXxXxXxXxXxXxX",
"xXxXxXxXxXxXxXxXxXp.^.].OX-X0XhXdXdXdXjXjXjXjXkXkXjXjXjXjXkXlXkXlXkXkXkXjXjXjXjXjXdXdXdXdXdXhXhXtX,X$X.X}.OXM.+.xXxXxXxXxXxXxXxX",
"xXxXxXxXxXxXxXxXp.Q.&XwXpXwXwXpXuXaXfXiXiXiXdXdXdXjXjXjXjXjXkXkXkXkXjXjXjXjXjXdXdXiXiXiXuXpXaXaXaXpXaXaXrX}.).y.xXxXxXxXxXxXxXxX",
"xXxXxXxXxXxXxXq.K.R.Q.oX=X-X2X0XwX0XqXuXqXuXiXiXdXiXdXdXjXjXjXjXjXjXjXdXjXdXdXiXfXuXuXuXqXqXwX0X0X,X=X.X'.Q.R.D.:.xXxXxXxXxXxXxX",
"xXxXxXxXxXxXxXg.T.T.R.Q.Q.Q.].}.OX$X;X2X7X7XuXuXiXdXdXjXjXjXjXjXjXjXjXjXjXjXfXfXaXqXuX7X0X,X*XOX].].'.'.'.'.R.L.i.X.xXxXxXxXxXxX",
"xXxXxXxXxXxX6.L.R.T.!.Q.'.].[.OX$X-X,X,X2X5X7XuXuXiXdXdXjXdXjXdXdXdXdXdXjXhXfXfXpXqX7X2X5X:X*XOX[.Q.Q.Q.Q.Q.Q.J.B.:.xXxXxXxXxXxX",
"xXxXxXxXxXxXw.T.!.R.Q.Q.[.).}.OX$X-X-X,X1X2X5X7XuXuXiXdXdXjXjXjXdXjXjXjXdXfXfXpXqX7X5X1X,X-X$X.X[.!.I.T.!.W.R.L.G.8.xXxXxXxXxXxX",
"xXxXxXxXxXxXj.T.T.T.Q.'.[.).}. X.X@X*X-X,X1X5X2X7XpXiXiXdXdXdXdXdXdXdXdXfXfXaXpX7X5X3X:X:X$X@XXX[.Q.T.T.!.!.^.R.B.a.#.xXxXxXxXxX",
"xXxXxXxXxX6.J.R.!.R.Q.'.].).}.}. X.X@X*X-X,X1X5X5X7XpXiXdXdXiXiXdXdXdXfXfXaXpXqX5X3X,X-X*X@X.XXX[.'.!.!.!.!.^.'.A.v.%.xXxXxXxXxX",
"xXxXxXxXxXe.!.T.!.W.Q.'.).).).).}. X.X@X$X-X:X1X2X5XqXpXiXiXfXfXdXiXfXfXfXaXqX7X2X,X-X$X@X.X}.[.[._.!.T.!.T.!.^.L.N.1.xXxXxXxXxX",
"xXxXxXxXxXa.!.T.!.Q.'.'.).}.[.[.[.}..X.X@X$X*X:X3X5X0XqXuXpXfXfXfXfXfXfXaXpX7X7X3X:X$X@X.X X}.[.[.'.Q.R.Q.W.!.^.W.N.e.X.xXxXxXxX",
"xXxXxXxX7.l.!.T.R.Q.).).}. XoXR.I.R.oX.XOX@X$X*X,X3X5XqXuXpXaXaXaXuXuXuXaXqX7X5X,X$XOX.X X X}.I.L.T.'.Q.Q.Q.W.Q.'.Z.i.} xXxXxXxX",
"xXxXxXxX*.Z.T.Y.R.Q.).U.S.^.S.S.T.L.C.!.I.@X@X*X-X1X5XqXuXqXpXpXqXuXuXqXpXqX7X;X*X@X@X.XS.S.H.L.L.L.S.I.H.Q.Q.Q.Q.J.l. .xXxXxXxX",
"xXxXxXk.%.E.T.T.R.U.C.!.L.L a 4 - 4 a J C.U.).=X-X:X5XqX7X7XqXqXuX7XqXqXqX7X5X;X*X@XD.I.x.J a 6 3 6 g =.T.S.I.R.Q.I.N.%.m.xXxXxX",
"xXxXxXV.%._.T.T.U.B.(.J ; & > < 1 < : & 6 -. X}.=X:X5XqXuXuXuX7XuXuXqX0X7X7X5X;X$XS.^.J - & > 1 1 , & & q t.).D.Q.W.B.;.C.xXxXxX",
"xXxXxXx.;.Q.T.R.Z.).j - 0 c Z U Y H D v , - [ .X@X:X5XqXuX7XuXqXwXuXpXqX7X7X5X;XI.(.g $ , v D E E D A y : - ,.).Y.Q.A.1.a.xXxXxX",
"xXxXxXj.<.Q.T.H. Xz > i H F {.lX5X{.R U U w 3 5.}.2X5XqX7X7XuXqXwXqXqXqXuX7X7X@X}.N & r D Q yXwX|.f.S U A < 3 d.Y.R.H.8.8.xXxXxX",
"xXxXxXy.<.Q.Y.L.,.- y U v p j.Z.g.w.P < S U 1 a ).$X7XqX7X7XuXqXrX0XrX0XqXqX7XU.y.- r H c I P.a.r.1.q w F Z > g U.H.L.9.1.xXxXxX",
"xXxXxX2.<.Q.L.|.f 2 U b @ $ p P ] V 8 X , Y A > ,.@X7XpXpX7XuXpXpXpXpXpXpXpX7X!.z < G b % 7 m P V u O o w W v 3 t.Y.L.e.;.xXxXxX",
"xXxXxX;.>.Q.J.C.7 v Y , . . O % % @ X . o c W 0 N ).qXuXpX7XuXqXpXqXpXqXaXqX$XS.9 i Y 1 . X @ # @ o . . O S Y > J .XJ.y.I xXxXxX",
"xXxXxX;.>.R.J.t.6 b S O . . . . . . . . . r ~ y f U.2XuXqXuXuXqXqXuXqXpXaXtX.Xd.6 c H # . . . . . . . . . i ~ 0 z ).A.i.I xXxXxX",
"xXxXxX<.&.T.I.3.8 S n o . . . . . . . .   w ~ x f C.,XuXuXqXpXqXuX7XuXpXaXpXOXs.9 b G @ . . . . . . . .   r ^ r g U.G.a.{ xXxXxX",
"xXxXxX9.&.Y.K.t.q b G @ . . . . . . . . . y ~ y g U.2XaXpXqXpXpXuXuXuXpXaXaX|.z.a v T : . . . . . . . . X v ~ e z .XG.i.o.xXxXxX",
"xXxXxXw.o.I.Z.x.d v E 1 . . . . . . . . @ S ! 0 N $X5XpXpXqXpXqXqXuXpXpXaXtXoXU.g r ! v X . . . . . . . # U T 2 B -XG.r.o.xXxXxX",
"xXxXxXy.{ I.B. XN 0 E G % . . . . . . o y ^ A 8 @.OXyXpXpXpXqXqXqXqXpXpXpXtX&X.XL 8 F W e X . . . . . @ b / n 8 -.%XZ.e.&.xXxXxX",
"xXxXxXs.] D.C.I.,.q v ^ S , o X X o % x ! T e g C.|.yXpXpXpXqX7XuXqXpXpXuXuX7XC.z.j t E E y % O o @ , n ^ H 0 g D.E.B.8.=.xXxXxX",
"xXxXxXd._ H.I.n. XN 7 b ^ ! D c c A T ^ T t a -.OXXXtXpXuXpXaXpXpXpXpXuXpXpXqXM.$X{ u i E ^ Y D D U ~ ^ H e d -.*XG.n.;.=.xXxXxX",
"xXxXxXd.B M.P.C.D.x.N 7 x Y / / / / ~ A 1 a [ /.B.5XpXpXuXuXiXuXiXpXpXwXqXuXqX=Xt./.L u e n W ^ / ~ Y c < d .. XB.H.v.o.=.xXxXxX",
"xXxXxXa.l j.H.I.z.U.x.J a 7 e x c i 0 8 z -.U.z.^.pXpXpXiXiXiXiXuXiXtXwXuXuXuXpXc.t.).%.z 9 2 t y e < q m >. XA.B.Z.g.{ >.xXxXxX",
"xXxXxX0.j >.F.I.D.s.C./.3._ z g f j N ..z./.t.c.rXqXpXpXpXpXpXpXuXuXpXpXuXuXuXpXqXz.3.D.z.=.L m z m J =.x./.a.v.H.b.&.f 4.xXxXxX",
"xXxXxX7.l V g.P.I.D.s.5.c.!.).C.c.D.$XD.s.3.C.rXpXpXpXpXpXpXpXpXuXqXpXpXpXiXuXuXpX7XC.,.5.c.I.|.I. X@XD.z.w.n.J.A.l.L f q.xXxXxX",
"xXxXxXxXk M 8.G.L.L.T.S.y.,.,.5.5.3.=.>.d.OX0XqXaXuXuXuXpXpXpXpXuXuXqXwXqXpXiXuXpXqX7X=Xx.5.-.=.,.>.>.9.z.Y.Y.H.n.g.J h xXxXxXxX",
"xXxXxXxXxXxX;.Z.L.L.T.Q.[.}.D.c.z.c.I.-X5X5X0XpXaXiXuXuXpXpXpXpXiXuXqXtXwXpXpXpXpXqX5X3X,X:X*X).I.L.'.[.].W.Y.Z.j.9.X.xXxXxXxXxX",
"xXxXxXxXxXxXo.l.P.J.I.R.'.XXoX@X$X*X-X:X3X5X5XqXpXuXuXuXuXuXqXpXaXpXpXpXpXpXqX0X0X2X1X:X-X*X$X$X@XoXXX'.!.Y.H.v.j.;.xXxXxXxXxXxX",
"xXxXxXxXxXxX| r.G.J.J.Y.Q.'.XXoX@X$X*X-X:X,X1X2X5X0X0X0X0X0X0X0X0X0X0X0X0X0X5X5X5X,X:X-X$X@X@X%XoXXX[.^.Y.J.A.j.i. .xXxXxXxXxXxX",
"xXxXxXxXxXxXX.1.N.K.J.L.T.W.'.[.XX.XOX@X$X-X-X-X,X,X1X1X5X3X5X3X5X1X1X,X,X,X,X:X-X*X$X@XOXoXoXXX[.].W.Y.L.H.n.j.2.X.xXxXxXxXxXxX",
"xXxXxXxXxXxXxXo.j.G.J.J.P.T.W.'.[.). X.XOX@X$X$X*X*X*X-X:X:X:X:X-X-X*X*X*X*X&X%X@X.X X X}.[.[.[.'.W.Y.L.H.A.j.a.o.xXxXxXxXxXxXxX",
"xXxXxXxXxXxXxXO.r.N.J.H.H.L.T.!.!.c.c. X X X}. X.X.XOX@X@X@X$X@XOX.X.X.X.X.X.XXX}.).}.).}.C.z.'.!.Y.L.H.H.v.h.2.O.xXxXxXxXxXxXxX",
"xXxXxXxXxXxXxXxX<.l.G.H.H.J.Y.Y.E.L.<._ [ -.x.).).).}.}. X X X}.}.}.}.}.}.}. X}.U.s.` L J { Z.W.Y.L.H.H.Z.h.a.%.xXxXxXxXxXxXxXxX",
"xXxXxXxXxXxXxXxX*.i.v.G.H.H.J.L.Y.E.R.E.G.r.{ B B B ( ( ( ) ` ` ` ` ` ( ( ( B B N ] r.F._._.W.Y.L.H.A.A.l.h.2.*.xXxXxXxXxXxXxXxX",
"xXxXxXxXxXxXxXxXxX1.j.B.G.H.H.J.P.Y.E.W.Q.W.R.W.J.F.N.l.h.i.e.9.9.e.i.h.l.b.F.J._.`._._.W.E.Y.L.H.A.A.N.h.r.%.xXxXxXxXxXxXxXxXxX",
"xXxXxXxXxXxXxXxXxX#.i.l.G.G.G.H.J.L.P.Y.E.E.W.Q.'.'.].^.!.T.!.T.R.T.!.T.^._.`._._.E.E.Y.P.L.J.G.A.A.Z.j.g.;.#.xXxXxXxXxXxXxXxXxX",
"xXxXxXxXxXxXxXxXxXxX:.j.l.G.G.G.G.J.K.P.Y.Y.Y.T.E.W._.`._._._.`.^.!.W.!.W.W.W.W.E.Y.Y.L.K.H.A.Z.Z.Z.l.h.2.$.xXxXxXxXxXxXxXxXxXxX",
"xXxXxXxXxXxXxXxXxXxXxX9.j.l.G.Z.Z.G.G.K.J.L.P.Y.Y.E.E.E._._.`._.^.W.E.E.E.E.Y.Y.Y.L.J.H.G.Z.B.B.F.b.h.e.&.xXxXxXxXxXxXxXxXxXxXxX",
"xXxXxXxXxXxXxXxXxXxXxX+.w.j.b.F.F.F.F.Z.Z.G.H.H.H.L.L.L.Y.Y.T.T.T.Y.Y.L.L.P.J.H.H.H.A.Z.F.F.N.N.b.j.r.;.X.xXxXxXxXxXxXxXxXxXxXxX",
"xXxXxXxXxXxXxXxXxXxXxXxX+.9.l.b.n.b.n.b.N.N.N.B.Z.Z.G.G.G.G.J.H.J.G.G.G.G.Z.Z.B.M.N.N.b.n.b.b.v.j.r.;.X.xXxXxXxXxXxXxXxXxXxXxXxX",
"xXxXxXxXxXxXxXxXxXxXxXxXxXX.;.g.l.l.l.l.b.N.B.Z.G.J.K.P.P.L.L.L.L.L.J.K.K.K.G.Z.B.N.b.b.l.v.v.j.9.:.xXxXxXxXxXxXxXxXxXxXxXxXxXxX",
"xXxXxXxXxXxXxXxXxXxXxXxXxXxXxXO.;.8.l.G.Y.W.^.].|.[.[.].].'.'.'.'.'.'.'.'.'.'.'._.W.Y.H.B.N.i.<.#.xXxXxXxXxXxXxXxXxXxXxXxXxXxXxX",
"xXxXxXxXxXxXxXxXxXxXxXxXxXxXxXxXxXX.| 3.s.v.C.L.].XXoXoX%X%X%X%X%X%X%X%X&X%XXX'.!.C.n.s.e.:.+.xXxXxXxXxXxXxXxXxXxXxXxXxXxXxXxXxX",
"xXxXxXxXxXxXxXxXxXxXxXxXxXxXxXxXxXxXxXxXxXxXC K .._ _ _ ] { ..........[ [ { { &.' C xXxXxXxXxXxXxXxXxXxXxXxXxXxXxXxXxXxXxXxXxXxX",
"xXxXxXxXxXxXxXxXxXxXxXxXxXxXxXxXxXxXxXxXxXxXxX= 4 * * * * * * * * * * * * * * ; + xXxXxXxXxXxXxXxXxXxXxXxXxXxXxXxXxXxXxXxXxXxXxX",
"xXxXxXxXxXxXxXxXxXxXxXxXxXxXxXxXxXxXxXxXxXxX5 j m m j d u q 9 6 6 9 q d j M ] J u xXxXxXxXxXxXxXxXxXxXxXxXxXxXxXxXxXxXxXxXxXxXxX",
"xXxXxXxXxXxXxXxXxXxXxXxXxXxXxXxXxXxXxXxXxXxXs ; q N { ..&.o.{ { ..&.=...{ _ d ; ; xXxXxXxXxXxXxXxXxXxXxXxXxXxXxXxXxXxXxXxXxXxXxX",
"xXxXxXxXxXxXxXxXxXxXxXxXxXxXxXxXxXxXxXxXxXX.V m a ; $ - ; 9 d g g a 9 ; * * 6 l M K xXxXxXxXxXxXxXxXxXxXxXxXxXxXxXxXxXxXxXxXxXxX",
"xXxXxXxXxXxXxXxXxXxXxXxXxXxXxXxXxXxXxXxXX.o.o.;._ V V l d q 9 9 9 q a g N V V J ] o.#.xXxXxXxXxXxXxXxXxXxXxXxXxXxXxXxXxXxXxXxXxX",
"xXxXxXxXxXxXxXxXxXxXxXxXxXxXxXxXxXxXxXX.%.o.o.l.!.C.h.w.8.1.;.;.;.>.<.2.9.a.w.o.o.o.o.O.xXxXxXxXxXxXxXxXxXxXxXxXxXxXxXxXxXxXxXxX",
"xXxXxXxXxXxXxXxXxXxXxXxXxXxXxXxXxXxXxXxX#.$.%.;.g.B.Y.`.^.!.E.E.E.T.T.!.`.H.9.{ o.o.o.#.xXxXxXxXxXxXxXxXxXxXxXxXxXxXxXxXxXxXxXxX",
"xXxXxXxXxXxXxXxXxXxXxXxXxXxXxXxXxXxXxXxXxXxXxXxXX.} '  .o.%.;.<.<.;.%.{  .| ' } X.xXxXxXxXxXxXxXxXxXxXxXxXxXxXxXxXxXxXxXxXxXxXxX",
"xXxXxXxXxXxXxXxXxXxXxXxXxXxXxXxXxXxXxXxXxXxXxXxXxXxXxXxXxXxXxXxXxXxXxXxXxXxXxXxXxXxXxXxXxXxXxXxXxXxXxXxXxXxXxXxXxXxXxXxXxXxXxXxX"
};
