/* XPM */
static char *f1e339e1dbb04e25ef1dadc2ed8ca69a4LAPVVQreewIkViS[] = {
/* columns rows colors chars-per-pixel */
"64 64 16 1 ",
"  c black",
". c #181818",
"X c gray11",
"o c #202020",
"O c #282828",
"+ c #2C2C2C",
"@ c gray19",
"# c #343434",
"$ c gray22",
"% c gray25",
"& c #484848",
"* c #4C4C4C",
"= c gray36",
"- c #646464",
"; c gray44",
": c #7C7C7C",
/* pixels */
"&&&&&*******&&&&$##++#$&$$$$$#@@@#$$$$##$##$$++++++++++++++++++ ",
"$@@@@@@$$$$$$$@@OOO@OOOOOOOOo....XOOOOOOOoO.................... ",
"$@$@;*$$$$;*@$$@@OO@@OOooooX......oOOOOOOoo..........;*....;*.O ",
"$$@$*.$$$$*.$$$@OOOOOooo..........XoooOOO@Oo.........* ....* .. ",
"$O@$$@@@$$$$$$$OOOoooo.............XooooOOOOOO............  ... ",
"$@@$$@@@@@@$$$@@oooooo..........X..XooooOoOOOOoo........... ... ",
"$O@$$@OOOO@@@@OOooooooo.............XoOOO@@@OOOoo.............. ",
"&OO$;*OO.......                        ......           ...;*.. ",
"&@@@*.OO.O@@@@@o.oOOooOOOooooo......ooO@@@@@@OOoo.....oO=o.* .. ",
"&O@OOOOO.@$;*@@OOO;*OO@$$O;*Oo.....;*oO@OOOO;*OOoo..;*o@-OOO.o. ",
"$@@O@OOO.$$*.@@OOO*.@$@@@@*.Ooo....*.oOOoooo*.Oooo..* oO-@@O... ",
"&@@@O@O@.$$$$$@@OoO@@@@OOOoOOooo..oooooooooooOOooooooooO=@@Oo.. ",
"&@@@O@@@.$$@$$.                                   ..oooo=@@Oo.. ",
"&@@@@@@$.$@@@@.@@OOOoooooooooXXXXXoOOOOOoooXXXXooO%Ooooo=OOOo.. ",
"&@@@@@$$.$@@@@.$@@OOoooooOOOOooXoXoOOOooXXXXXXXXXo%OOoo.*ooo... ",
"&@@@@@$$.@@@@@.$$@OOoooooooOOOOOOOOOOOoXXXXXX..XXX%OO.oo*...... ",
"&@@@@@@$.@@@@@.@$$@OOooooooOOOOOOOOOOOOoXXXX......%ooo..*...... ",
"&$@@@@@$.@@@@$.@@$$OOOOooooOOOOOOOOOOOOooXXXXX....$oooo.*...... ",
"&$$$@@@$.@@@@$.@@$$@OOOOooooOOOOOOOOOOOOooXXXXXX..$oooo.*...... ",
"&$@$$@@@.@@;*$oO@@$$@OOOOooOOOOOOOOOOOOOOoooXXXX..$o;*o.*...... ",
"&@$@$@@O.@@*.@oOO@@$$@OOOOoooOOOOOOOOOOOOOoooXXX..$o* oo=ooo... ",
"&@$$$@OO.$$$$@oOOO@@$$@OOOooooOOOOOOOOOOOOOOooXX..$.oooo=ooo... ",
"*@$$@OoO.@$@$$.@@@@@$$@@OOOooooooooooOOOOOOOOoXX..$..oOO=oo.... ",
"*@$$@OOO.@$@$$.$@@@@@$$@@OOOOOoooooooOOOOOOOOooXX.$..oOO=Oo.... ",
"&$$$@@@@.O$$$@.$@@@@@$$$$@OOOOOoooooooOOOOOOOOoXXX$.oooO=Oo.... ",
"&$$@@$$$.$$$$@.$@@@@@@$$$$@@OOOOoooooOOOOOOOOOoooX%oooOO=Oo.... ",
"&@@@@$$$.$@@@$.@@@@@@@@@$$$$@@OOOoooooOOOOOOOOOOOo%oOOOO=oo.... ",
"*@$@@@$$.$@;*@.@@@@@$$@@$$$$$@@OOOoooOoOOOOOOOOOOO@O;*OO=ooo... ",
"+OOO;*@$.$$*.@.OO@@@$$$$$$$$$$@@OOOOOOoooooOOOOOOO@O* OO=o.;*.. ",
"#ooo*.@$.$$$@O.O@@@$$$$$$$$$$$$$@OOOOOOoooooOOOOOO$OOOOO=o.* .. ",
"#.oooO@$.$@$@O.@@@@$$$$$$$$$$$$$$@@OOOOoooooOOOOOO%oooOO=oo.... ",
"#.oooO@@.@@@Oo.@@@$$$$$$$$@@$$$$$$$@@OOOooooOOOOOO%ooooO=oo.... ",
"+oooo@O@.@@@@o.@@$$$$$$$$@@@$$$$$$$$$@OOOoXXoOOOOO%..ooo=o..... ",
"+oooO@@@.$@@@O.@@$$$$$$$$@@@@$$$$@@$$$@OOoXXXoOOOo%oooOo=...... ",
"+OOOO@@@.$$$$O.@@@$$$$$$@@@@@@$$$$$@$$@@OoX.XXoooo%ooOOO=...... ",
"+@OOOOOO.$$;*@.OO@@$$$$@@@@@@@@@$$$$$$$@OOX.XXoooo%o;*OO=oo.... ",
"+Ooo;*OO.$$*.@.OO@@@$$$$@@OOOOOO@@$$$$@@@OoXXXooOO%O* @O=Oo;*.. ",
"+ooo*.oO.$$@@@.OOO@@@$$$@OOOOOOOOO@@@@@@@OoXXXoOOO&@@@@O=oo* .. ",
"#ooooooO.@$$@@.OOO@@@@$$@OOOooooOOOO@@@@OOoXXXoOOO&OO@OO=o..... ",
"#ooooooo.O@@$@.OOO@@@@$$@OOoooooooOOOOOOOOoXXXoOOO%OoOOo=...... ",
"+oOooooo.OO@@$.@@@@@@@$$@OOOOoooooOOOOOOOoXXXXoOOO%Ooooo*...... ",
"#ooooooo.OO@@$.@@@@$$$$$$@OOOoooOOOOOOOOooXX.XoOOO%Oooo.*...... ",
"#ooOoooo.OO@@$.$$@$$$$$$$@OOOOOoOOOOOOOooXXXXXoOOO%Oooo.*....o. ",
"$ooOoooO.@@;*@.$$$$$$$$$$$@OOOOOOOOOOOooXXXXXooOOO%O;*o.*...ooo ",
"&OoOOooO.@@*.@.@$$$$$$$$$$$@OOOOOOOOOOoXXXXXooOOOO&@* oo*..ooOo.",
"*@OO@ooO.@$$@@.@@@$$$$$$$$$$@@OOOOOOOoXX..XXoOOOOO&OOOoo=ooooOo.",
"&$@OoOoO.@$$@O.@@@$$$$$$$$$$$@@OOOOooXX...XXooOOOO&OOooo=oooOOo.",
"$@$@O@Oo.$@@@O.O@@$$$$$$$$$$$$@@OOoXX.....XXoooOOO%ooo..=oOOOO@.",
"$O@$@OOo.O@OOO.O@@$$$$$$$$@@@$$@OOoX.....XXXXXooXo$.oooO=OOOOOo.",
"$$@@$@OO.@@OOO.OO@$$@@$$$@@@@@$$@OoX....XXXXXXXXX.$oooOO=OOOooO.",
"&$@@@$$O.@$$@O.OO@$$@@@@$@@@@@@$$OoXX..XXXXXXXX...$.oooo=oooooO.",
"$@@@@@@$.@@$@@o&*****===========***%%%$$$$$$$$%%%%*.....=.oOOOO.",
"*@@@@@@O.OO@$@@@@@@$$@OOOOO@@$$$$$$@@OOOooooooo.........*oO@@@O.",
"*@@@OOOO.oo;*$@@@@@;*@OOOOO;*$$$$$$;*OOOoooo;*......;*..*oO@$@@.",
"&$$OOOOo.oo*.@$@@$$*.@OOO@@*.@$$$$@* OOoooo.* .o...o* ..*.oO@@@.",
"+O@@;*Oo.ooOO@@$$$$@@@OO@@@@@@@$$OOOooo.................*..;*@@.",
"#o@@*.OO@::-----------------------===================***:..* @@.",
"$O@@@OOOoooO@@$$O@$@@$$@@$$$$$OOOooooo......o.o.o..........O@@@.",
"&@@$$@OOoooO@@$$$@@@@$$$$$$$@@OOOOooOOo.oo.....oooo.......oO@OO.",
"*$$@OOOOOOOOO@$@@$@$$O$O$@@@@@@@OOoOOOOooooo...ooooo......oOOOo.",
"&@@O;*@O@$;*@@O$@@$@$$@@$@$$$@$$@@@@OoOOoooo...oooooo;*..oo;*oO.",
"&$@O*.@@@@*.@$@$@$@$@@@$@@@@OO@$$@@@OOO@oOoooo...ooo.* ..oO* O@.",
"#$@@O@$$@oo@$OoO$$@@$O@@@OOOO@@@@@@OOOOOO..oooo..oo......oOOOOO.",
"o..............................................................."
};
