/* XPM */
static char *_f112f0da2374b0a919d8259f461413fyrYnxqaKasSJZNXG[] = {
/* columns rows colors chars-per-pixel */
"64 64 29 1 ",
"  c black",
". c #181818",
"X c gray11",
"o c #202020",
"O c #282828",
"+ c #2C2C2C",
"@ c gray19",
"# c gray22",
"$ c #640000",
"% c #700000",
"& c #7C0000",
"* c gray25",
"= c #484848",
"- c #4C4C4C",
"; c gray36",
": c #646464",
"> c gray44",
", c #7C7C7C",
"< c #880000",
"1 c #980000",
"2 c #A40000",
"3 c #B00000",
"4 c #848400",
"5 c #B4AC00",
"6 c gray55",
"7 c #989898",
"8 c gray66",
"9 c #B4B4B4",
"0 c #C0C0C0",
/* pixels */
"=============================================================== ",
"=@@@@@@#######@@OOO@OOOOOOOOo....XOOOOOOOoO.................... ",
"=@#@>-####>-@##@@OO@@OOooooX......oOOOOOOoo..........>-....>-.O ",
"=#@#-.####-.###@OOOOOooo..........XoooOOO@Oo.........- ....- .. ",
"=O@##@@@#######OOOoooo.............XooooOOOOOO............  ... ",
"=@@##@@@@@@###@@oooooo..........X..XooooOoOOOOoo........... ... ",
"=O@##@OOOO@@@@OOooooooo.............XoOOO@@@OOOoo.............. ",
"=OO#>-OO.......                        ......           ...>-.. ",
"=@@@-.OO.O@@@@@o.oOOooOOOooooo......ooO@@@@@@OOoo.....oO-o.- .. ",
"=O@OOOOO.@#>-@@OOO>-OO@##O>-Oo.....>-oO@OOOO>-OOoo..>-o@-OOO.o. ",
"=@@O@OOO.##-.@@OOO-.@#@@@@-.Ooo....-.oOOoooo-.Oooo..- oO-@@O... ",
"=@@@O@O@.#####@@OoO@@@@OOOoOOooo..oooooooooooOOooooooooO-@@Oo.. ",
"=@@@O@@@.##@##.                                   ..oooo-@@Oo.. ",
"=@@@@@@#.#@@@@.@@OOOoooooooooXXXXXoOOOOOoooXXXXooO-Ooooo-OOOo.. ",
"=@@@@@##.#@@@@.#@@OOoooooOOOOooXoXoOOOooXXXXXXXXXo-OOoo.-ooo... ",
"=@@@@@##.@@@@@.##@OOoooooooOOOOOOOOOOOoXXXXXX..XXX-OO.oo-...... ",
"=@@@@@@#.@@@@@.@##@OOooooooOOOOOOOOOOOOoXXXX......-ooo..-...... ",
"=#@@@@@#.@@@@#.@@##OOOOooooOOOOOOOOOOOOooXXXXX....-oooo.-...... ",
"=###@@@#.@@@@#.@@##@OOOOooooOOOOOOOOOOOOooXXXXXX..-oooo.-...... ",
"=#@##@@@.@@>-#oO@@##@OOOOooOOOOOOOOOOOOOOoooXXXX..-o>-o.-...... ",
"=@#@#@@O.@@-.@oOO@@##@O:;===***@@@OOOOO...oooXXX..-o- oo-ooo... ",
"=@###@OO.####@oOOO@@##@>,66,,,,>:::;;====,OOooXX..-.oooo-ooo... ",
"=@##@OoO.@#@##.@@@@@##@>,>-6,,,>::::;;>#=,OOOoXX..-..oOO-oo.... ",
"=@##@OOO.@#@##.#@@@@@##>,-.6,,,,>>::;;#.=6OOOooXX.-..oOO-Oo.... ",
"=###@@@@.O###@.#@@@@@##>,666,,,,>>::;;===6OOOOoXXX-.oooO-Oo.... ",
"=##@@###.####@.#@@@@@@#>,655.55.5.55.55==6OO...OoX-oooOO-Oo.... ",
"=@@@@###.#@@@#.@@@@@@@@:,644 44 4 44 44;;6OO.$$=Oo-oOOOO-oo.... ",
"=@#@@@##.#@>-@.@@@@@##@:,66@>;@,,,@>;@;;;6OO.%%=OO-O>-OO-ooo... ",
"=OOO>-@#.##-.@.OO@@@###:>,6@;-@6,,@;-@:;;6oO.&&=OO-O- OO-o.>-.. ",
"=ooo-.@#.###@O.O@@@####:>,6@oo@666@oo@:::7oo.<<=OO-OOOOO-o.- .. ",
"=.oooO@#.#@#@O.@@@@####;>,6@..@666@..@:::7oo.11=OO-oooOO-oo.... ",
"=.oooO@@.@@@Oo.@@@#####;>>,@  @666@  @>::7oo.22=OO-ooooO-oo.... ",
"=oooo@O@.@@@@o.@@######=>>,@  @666@  @>::7XX.33=OO-..ooo-o..... ",
"=oooO@@@.#@@@O.@@######=>>,@  @666@  @,>>7XX.22=Oo-oooOo-...... ",
"=OOOO@@@.####O.@@@#####=>>>@  @666@  @,>>8X..11=oo-ooOOO-...... ",
"=@OOOOOO.##>-@.OO@@####*;:>@  @666@  @,>>8X..<<=oo-o>-OO-oo.... ",
"=Ooo>-OO.##-.@.OO@@@###*;:>@  @666@  @,,,8oX.&&=OO-O- @O-Oo>-.. ",
"=ooo-.oO.##@@@.OOO@@@##*;::@  @666@  @,,,9oX.%%=OO-@@@@O-oo- .. ",
"=ooooooO.@##@@.OOO@@@@#@;;:@  @,,6@  @6,,9oX.$$=OO-OO@OO-o..... ",
"=ooooooo.O@@#@.OOO@@@@#@;;:@@@@,,6@@@@6669oX+===OO-OoOOo-...... ",
"=oOooooo.OO@@#.@@@@@@@#@;;;::>>,,,66666669XXXXoOOO-Ooooo-...... ",
"=ooooooo.OO@@#.@@@@####@*>@::>>>>,6666>-60XX.XoOOO-Oooo.-...... ",
"=ooOoooo.OO@@#.##@#####@*@.::>>>>,6666-.60XXXXoOOO-Oooo.-....o. ",
"=ooOoooO.@@>-@.########O*==;::>>>>,6666660XXXooOOO-O>-o.-...ooo ",
"=OoOOooO.@@-.@.@#######.>>,,,6666677789990XXooOOOO-@- oo-..ooOo.",
"=@OO@ooO.@##@@.@@@##########@@OOOOOOOoXX..XXoOOOOO-OOOoo-ooooOo.",
"=#@OoOoO.@##@O.@@@###########@@OOOOooXX...XXooOOOO-OOooo-oooOOo.",
"=@#@O@Oo.#@@@O.O@@############@@OOoXX.....XXoooOOO-ooo..-oOOOO@.",
"=O@#@OOo.O@OOO.O@@########@@@##@OOoX.....XXXXXooXo-.oooO-OOOOOo.",
"=#@@#@OO.@@OOO.OO@##@@###@@@@@##@OoX....XXXXXXXXX.-oooOO-OOOooO.",
"=#@@@##O.@##@O.OO@##@@@@#@@@@@@##OoXX..XXXXXXXX...-.oooo-oooooO.",
"=@@@@@@#.@@#@@o-----------------------------------;.....-.oOOOO.",
"=@@@@@@O.OO@#@@@@@@##@OOOOO@@######@@OOOooooooo.........-oO@@@O.",
"=@@@OOOO.oo>-#@@@@@>-@OOOOO>-######>-OOOoooo>-......>-..-oO@#@@.",
"=##OOOOo.oo-.@#@@##-.@OOO@@-.@####@- OOoooo.- .o...o- ..-.oO@@@.",
"=O@@>-Oo.ooOO@@####@@@OO@@@@@@@##OOOooo.................-..>-@@.",
"=o@@-.OO@-----------------------------------------------;..- @@.",
"=O@@@OOOoooO@@##O@#@@##@@#####OOOooooo......o.o.o..........O@@@.",
"=@@##@OOoooO@@###@@@@#######@@OOOOooOOo.oo.....oooo.......oO@OO.",
"=##@OOOOOOOOO@#@@#@##O#O#@@@@@@@OOoOOOOooooo...ooooo......oOOOo.",
"=@@O>-@O@#>-@@O#@@#@##@@#@###@##@@@@OoOOoooo...oooooo>-..oo>-oO.",
"=#@O-.@@@@-.@#@#@#@#@@@#@@@@OO@##@@@OOO@oOoooo...ooo.- ..oO- O@.",
"=#@@O@##@oo@#OoO##@@#O@@@OOOO@@@@@@OOOOOO..oooo..oo......oOOOOO.",
"o..............................................................."
};
